<svg width="40" height="40" viewBox="0 0 40 40" fill="none" xmlns="http://www.w3.org/2000/svg">
<g clip-path="url(#clip0_6_148)">
<path d="M20 0C8.9525 0 0 8.9525 0 20C0 31.0475 8.9525 40 20 40C31.0475 40 40 31.0475 40 20C40 8.9525 31.0475 0 20 0ZM15 30C9.47 30 5 25.5325 5 20C5 14.4675 9.47 10 15 10C17.7025 10 19.96 10.985 21.7025 12.6175L18.9825 15.2275C18.24 14.5175 16.9425 13.6875 14.9975 13.6875C11.5825 13.6875 8.795 16.515 8.795 20C8.795 23.485 11.585 26.3125 14.9975 26.3125C18.9575 26.3125 20.4425 23.47 20.67 22H14.9975V18.57H24.4425C24.5275 19.07 24.6 19.57 24.6 20.2275C24.6 25.945 20.7725 30 14.9975 30H15ZM32.5 20V22.5H30V20H27.5V17.5H30V15H32.5V17.5H35V20H32.5Z" fill="white"/>
</g>
<defs>
<clipPath id="clip0_6_148">
<rect width="40" height="40" fill="white"/>
</clipPath>
</defs>
</svg>
