<?xml version="1.0" encoding="utf-8"?><!-- Generator: Adobe Illustrator 15.0.0, SVG Export Plug-In . SVG Version: 6.00 Build 0)  --><!DOCTYPE svg PUBLIC "-//W3C//DTD SVG 1.1//EN" "http://www.w3.org/Graphics/SVG/1.1/DTD/svg11.dtd"><svg xmlns="http://www.w3.org/2000/svg" xmlns:xlink="http://www.w3.org/1999/xlink" viewBox="0 0 50 50" width="40px" height="40px"><g><path d="M18.043,33.614c-0.324,0-2.27,0.069-3.787,0.586c-0.796,0.296-3.099,1.175-3.099,3.78c0,2.606,2.487,4.481,6.345,4.481c3.464,0,5.3-1.696,5.301-3.97c0-1.873-1.187-2.862-3.926-4.844C18.588,33.614,18.407,33.614,18.043,33.614z"/><path d="M16.275,17.236c-0.937,0-1.946,0.477-2.528,1.22c-0.612,0.761-0.798,1.754-0.798,2.706c0,2.461,1.418,6.541,4.515,6.541c0.909,0,1.877-0.447,2.458-1.032c0.823-0.848,0.896-2.02,0.896-2.674C20.818,21.347,19.268,17.236,16.275,17.236z"/><path d="M49.894,9c-0.689-5.074-5.04-9-10.301-9H10.407C5.146,0,0.795,3.926,0.106,9H49.894z"/><path d="M0,11v28.598C0,45.334,4.668,50,10.407,50h29.185C45.331,50,50,45.333,50,39.596V11H0z M24,22.241c0,2.715-1.517,4.065-3.033,5.271c-0.467,0.48-1.015,1-1.015,1.805c0,0.806,0.548,1.25,0.945,1.574l1.297,1.031c1.586,1.357,3.024,2.613,3.024,5.141c0,3.451-3.284,6.938-9.487,6.938c-5.231,0-7.752-2.531-7.752-5.248c0-1.318,0.649-3.193,2.783-4.48c2.229-1.395,5.259-1.58,6.886-1.694c-0.507-0.655-1.084-1.351-1.084-2.494c0-0.615,0.181-0.985,0.365-1.431c-0.401,0.035-0.798,0.074-1.158,0.074c-3.823,0-5.994-2.906-5.994-5.771c0-1.69,0.762-3.571,2.319-4.92C14.145,16.306,16.604,16,18.548,16h7.431l-2.311,1.218h-2.235C22.262,18.037,24,19.448,24,22.241z M43,33h-5v5h-4v-5h-5v-4h5v-5h4v5h5V33z"/></g></svg>